 <svg  version="1.0" xmlns="http://www.w3.org/2000/svg"  width="1104.000000pt" height="555.000000pt" viewBox="0 0 1104.000000 555.000000"  preserveAspectRatio="xMidYMid meet">  <g transform="translate(0.000000,555.000000) scale(0.100000,-0.100000)" fill="#334050" stroke="none"> <path d="M2028 4155 c-120 -33 -211 -120 -246 -236 -25 -86 -90 -352 -102 -424 -5 -27 -16 -77 -24 -110 -15 -57 -78 -388 -111 -580 -8 -49 -20 -142 -25 -205 -6 -63 -15 -151 -20 -195 -13 -109 -40 -698 -41 -927 -2 -173 0 -192 21 -248 25 -66 55 -101 128 -153 l47 -32 420 -5 c269 -3 429 -1 444 5 22 9 27 22 41 105 28 156 75 250 188 372 54 58 178 148 204 148 7 0 22 6 33 14 45 31 177 58 280 58 274 -1 512 -150 635 -397 47 -93 79 -203 80 -267 0 -15 4 -29 9 -32 17 -11 3904 -7 3915 4 5 5 13 38 17 73 26 219 182 440 376 537 202 101 409 112 593 32 95 -41 125 -58 177 -100 153 -125 240 -270 269 -451 7 -46 18 -89 23 -94 5 -5 92 -9 193 -9 201 0 216 3 272 59 16 15 33 39 39 53 12 29 16 521 5 619 -22 193 -151 366 -343 460 -116 57 -277 131 -285 131 -4 0 -43 16 -86 36 -85 38 -101 45 -239 93 -236 83 -199 58 -431 298 -115 120 -267 278 -339 353 -243 254 -570 577 -625 617 -332 241 -627 359 -998 398 -193 21 -4420 21 -4494 0z m5277 -654 c208 -46 365 -125 506 -256 24 -23 130 -131 234 -240 105 -110 233 -245 285 -300 52 -54 115 -120 139 -145 23 -25 49 -57 57 -72 13 -25 13 -31 -2 -53 -22 -34 -40 -37 -130 -20 -43 8 -113 19 -154 25 -41 5 -113 16 -160 24 -92 16 -190 31 -340 52 -52 7 -167 25 -255 39 -88 14 -196 30 -240 36 -121 16 -197 44 -244 89 -51 49 -70 93 -87 195 -17 104 -52 326 -70 440 -13 85 -13 91 7 131 14 30 33 49 62 64 39 20 53 21 172 16 73 -3 169 -14 220 -25z"/> <path d="M3125 1580 c-144 -29 -301 -155 -375 -301 -30 -57 -60 -187 -60 -254 0 -65 30 -197 57 -248 61 -119 177 -225 303 -279 71 -30 82 -32 205 -32 114 -1 138 2 195 23 233 88 380 296 380 539 0 245 -156 462 -385 537 -62 21 -94 25 -178 24 -56 -1 -120 -5 -142 -9z m181 -241 c192 -35 318 -231 259 -400 -16 -44 -56 -111 -85 -139 -42 -42 -155 -90 -213 -90 -39 0 -138 29 -158 46 -8 8 -20 14 -25 14 -17 0 -71 62 -100 115 -21 39 -29 67 -32 126 -4 68 -1 84 22 135 45 98 118 162 217 188 30 8 54 15 55 15 0 1 27 -4 60 -10z"/> <path d="M8505 1583 c-57 -12 -147 -52 -199 -88 -66 -44 -155 -146 -187 -213 -32 -66 -59 -180 -59 -252 0 -75 28 -197 58 -255 59 -117 191 -236 314 -285 56 -22 78 -24 198 -24 129 0 138 2 210 32 169 72 297 214 340 378 54 207 -4 414 -157 560 -72 70 -179 128 -262 144 -52 10 -216 12 -256 3z m189 -248 c156 -41 245 -151 246 -305 0 -156 -98 -277 -253 -311 -183 -40 -374 119 -371 311 3 150 113 279 265 309 24 5 46 9 49 10 3 1 32 -6 64 -14z"/> </g> </svg> 