<svg width="35" height="12" viewBox="0 0 726.12 319.88" version="1.1" xmlns="http://www.w3.org/2000/svg" xmlns:xlink="http://www.w3.org/1999/xlink" xml:space="preserve" xmlns:serif="http://www.serif.com/" style="fill-rule:evenodd;clip-rule:evenodd;stroke-linejoin:round;stroke-miterlimit:2;">
    <g transform="translate(-20.68,-37.15)">
      <path d="M69.484,38.961C59.164,41.799 51.337,49.281 48.328,59.257C46.177,66.654 40.587,89.531 39.555,95.722C39.128,98.045 38.179,102.345 37.491,105.184C36.201,110.085 30.783,138.552 27.945,155.065C27.256,159.28 26.224,167.278 25.797,172.696C25.278,178.114 24.504,185.682 24.077,189.466C22.956,198.841 20.939,249.496 20.852,269.191C20.678,284.07 20.852,285.704 22.355,290.52C24.504,296.196 27.085,299.188 33.363,303.678L37.425,306.43L73.526,306.857C96.661,307.124 110.422,306.95 111.711,306.43C113.604,305.656 114.031,304.538 115.238,297.4C117.646,283.983 121.689,276.899 131.41,266.407C136.05,261.419 146.715,253.678 149.001,253.678C149.653,253.678 150.943,253.198 151.89,252.474C155.659,249.808 166.011,247.016 174.87,247.016C198.434,247.102 218.903,259.387 229.482,280.63C233.525,288.628 236.276,298.088 236.362,303.592C236.362,304.882 236.707,306.049 237.134,306.347C238.617,307.294 572.891,306.95 573.838,306.003C574.265,305.576 574.957,302.737 575.302,299.745C577.588,280.888 591.952,261.88 609.636,253.539C627.009,245.052 644.812,244.159 660.637,251.786C668.807,255.312 671.387,256.775 675.877,260.63C689.017,271.137 696.499,284.608 699.994,300.174C700.646,304.13 701.597,307.828 702.024,308.255C702.451,308.682 709.933,308.955 718.42,308.955C735.858,308.955 737.148,308.687 741.964,303.871C743.347,302.488 744.83,300.105 745.417,299.011C746.449,296.864 746.794,253.591 745.941,244.165C744.052,227.566 732.261,212.687 715.249,204.102C705.273,198.201 691.426,191.337 690.773,191.337C690.446,191.337 687.039,189.96 683.341,188.24C675.032,184.972 673.649,184.37 661.787,180.242C640.489,173.104 643.672,175.254 622.719,154.613C612.829,144.293 599.757,130.704 593.565,124.254C572.665,102.41 545.543,75.63 540.812,71.191C513.26,51.463 488.889,41.315 457.982,38.961C441.383,37.155 76.848,37.155 69.484,38.961ZM523.322,95.207C541.21,99.163 555.713,106.958 568.84,119.224C570.904,121.202 580.02,130.42 588.965,139.864C597.98,149.368 609.023,161.936 613.513,167.666C618.003,173.156 623.421,179.486 625.485,181.633C627.463,183.78 629.756,186.532 630.408,187.626C631.534,189.773 631.534,190.253 630.681,192.087C628.792,194.978 627.009,195.246 618.497,193.999C614.799,193.347 608.261,192.201 604.735,191.673C601.209,191.246 594.68,190.1 590.637,189.448C583.669,188.241 576.217,187.094 563.733,185.288C559.243,184.636 548.329,182.753 539.314,181.486C530.299,180.219 519.081,179.486 514.591,178.834C504.755,177.567 498.219,175.386 493.729,170.896C488.98,166.08 487.09,162.554 485.607,153.045C484.124,143.364 480.632,123.008 478.849,111.204C477.722,103.84 477.722,103.36 479.489,99.511C480.582,97.127 482.472,95.237 485.521,93.963C489.229,92.023 490.322,91.936 501.902,92.369C508.18,92.627 516.935,93.86 523.322,95.207Z" style="fill:rgb(51,64,80);fill-rule:nonzero;"/>
      <path d="M163.829,260.635C151.445,263.913 137.943,274.749 131.051,287.305C128.471,292.208 125.891,303.388 125.891,309.151C125.891,314.741 128.471,326.094 130.816,330.48C136.566,340.713 146.565,349.83 157.401,354.32C163.482,356.704 164.435,356.964 175.009,356.964C184.814,357.037 186.878,356.704 191.368,354.898C211.819,347.68 224.462,329.791 224.462,308.885C224.462,287.822 211.099,268.159 191.012,261.709C185.581,260.016 182.83,259.671 175.999,259.744C171.226,259.817 165.722,260.158 163.829,260.635Z" style="fill:rgb(51,64,80);fill-rule:nonzero;"/>
      <path d="M626.526,260.374C621.036,261.193 613.684,264.633 608.854,267.729C602.779,271.513 594.08,280.285 591.33,285.792C588.58,291.199 586.348,302.005 586.348,308.721C586.348,315.697 588.837,326.663 591.417,331.651C597.33,340.713 609.483,350.776 620.057,355.162C624.83,356.964 626.723,357.037 637.318,357.037C648.37,357.037 649.09,356.964 655.477,354.32C670.871,347.282 682.88,335.07 686.578,320.965C691.222,303.161 686.234,285.357 672.094,272.801C667.304,268.028 658.681,263.238 651.607,261.193C646.777,259.671 632.965,259.498 626.526,260.374Z" style="fill:rgb(51,64,80);fill-rule:nonzero;"/>
      <path d="M337.182,61.993C338.746,59.79 340.63,59.002 342.833,59.627C345.036,60.252 346.137,61.563 346.137,63.486L346.137,151.867C346.137,153.79 346.911,155.563 348.465,157.117C350.019,158.671 351.771,159.445 353.723,159.445L381.787,159.445C383.497,159.445 384.668,160.233 385.293,161.797C385.918,163.36 385.73,164.849 384.729,166.256L310.783,264.876C309.219,267.079 307.207,267.74 304.747,266.899C302.287,266.058 301.01,264.306 301.01,261.553L301.01,178.733C301.01,176.142 299.747,174.879 297.156,174.879L265.54,174.879C263.83,174.879 262.627,174.218 261.93,172.984C261.233,171.75 261.401,170.471 262.402,169.064L337.182,61.993Z" style="fill:rgb(255,130,45);fill-rule:nonzero;"/>
    </g>
  </svg>